<svg xmlns="http://www.w3.org/2000/svg" xmlns:xlink="http://www.w3.org/1999/xlink" style="display:none"><defs><path id="b" fill-rule="evenodd" d="M0 0h1400v1968H0V0z"/><path id="c" fill-rule="evenodd" d="M0 5a5 5 0 0 1 5-5h1014a5 5 0 0 1 5 5v39a5 5 0 0 1-5 5H5a5 5 0 0 1-5-5V5z"/><path id="d" fill-rule="evenodd" d="M3.804 2h127.428c1.401 0 2.536 1.79 2.536 4v26c0 2.21-1.135 4-2.536 4H3.804c-1.4 0-2.536-1.79-2.536-4V6c0-2.21 1.135-4 2.536-4z"/><path id="e" d="M3.804 3h127.428V1H3.804v2zm127.428 0c.238 0 .598.154.949.707.342.54.587 1.348.587 2.293h2c0-1.265-.323-2.457-.898-3.364-.568-.895-1.475-1.636-2.638-1.636v2zm1.536 3v26h2V6h-2zm0 26c0 .944-.245 1.752-.587 2.293-.351.553-.711.707-.949.707v2c1.163 0 2.07-.741 2.638-1.636.575-.907.898-2.1.898-3.364h-2zm-1.536 3H3.804v2h127.428v-2zM3.804 35c-.238 0-.598-.154-.949-.707-.343-.54-.587-1.349-.587-2.293h-2c0 1.265.323 2.457.898 3.364C1.733 36.259 2.641 37 3.804 37v-2zm-1.536-3V6h-2v26h2zm0-26c0-.944.244-1.753.587-2.293.35-.553.71-.707.949-.707V1c-1.163 0-2.07.741-2.638 1.636C.591 3.543.268 4.736.268 6h2z"/><path id="f" fill-rule="evenodd" d="M12.47 12.835a6.853 6.853 0 0 0-1.043 0c-.282.02-.355-.066-.351-.349.017-1.18.009-2.362.006-3.543-.002-.908-.458-1.364-1.373-1.365-1.817-.003-3.635-.004-5.453 0-.91.002-1.365.458-1.367 1.366-.003 1.151-.011 2.303.006 3.453.005.315-.038.475-.408.44-.419-.042-.986.138-1.227-.075-.28-.247-.084-.824-.085-1.256-.008-3.287.005-6.573-.016-9.86-.003-.417.119-.497.5-.479.665.032 1.333.024 1.999.002.307-.01.417.064.41.394-.023.984-.013 1.968-.008 2.953.005.872.444 1.312 1.313 1.315 1.09.004 2.18.005 3.271 0 .8-.004 1.263-.47 1.267-1.27.004-.995 0-1.99 0-2.976.927.894 1.83 1.768 2.74 2.634.136.13.161.271.16.445-.002 2.605-.006 5.21.005 7.814 0 .272-.054.38-.345.357zm-8.118 0c.877-.015 1.754-.006 2.631-.006.862 0 1.724-.013 2.586.007.285.006.351-.078.347-.353a143.924 143.924 0 0 1-.002-3.402c.003-.25-.059-.34-.326-.338-1.74.011-3.478.012-5.217 0-.275-.003-.32.097-.318.34.01 1.149.011 2.298 0 3.447-.003.234.057.308.3.304zM5.56 1.168c.968.018 1.936.012 2.904.003.209-.002.289.046.286.272-.011.983-.012 1.966 0 2.949.003.231-.085.272-.29.27-.968-.009-1.936-.01-2.903.001-.23.003-.32-.05-.31-.297.02-.499.006-.998.006-1.497 0-.454.011-.908-.005-1.361-.01-.24.036-.345.312-.34zm8.044 2.253A275.803 275.803 0 0 1 10.521.341c-.227-.23-.465-.342-.797-.341-2.8.01-5.6.005-8.4.007C.418.007.002.43 0 1.347-.001 3.223 0 5.1 0 6.977c0 1.906-.002 3.813 0 5.72.001.873.433 1.301 1.315 1.302 3.784.002 7.568.001 11.352 0 .867 0 1.327-.45 1.328-1.3.002-2.769-.002-5.538.004-8.307 0-.387-.116-.695-.396-.97z"/></defs><symbol id="top-panel-edit__save" viewBox="0 0 14 14"><g transform="translate(3578 606)"><clipPath id="a" clip-rule="evenodd"><path d="M-4299-951h1400v2201h-1400V-951z"/></clipPath><g clip-path="url(#a)"><use xlink:href="#b" transform="translate(-4299 -951)"/><use xlink:href="#c" transform="translate(-3996 -623)"/><use xlink:href="#d" transform="translate(-3598.27 -1630)" fill-opacity=".01"/><use xlink:href="#e" transform="translate(-3598.27 -1618)"/><use xlink:href="#f" transform="translate(-3578 -606)"/></g></g></symbol><symbol id="top-panel__rss" viewBox="0 0 14 15"><path d="M13.827 12.976c-.03.532-.462.979-.98 1.019-.591.046-1.103-.307-1.195-.868-.06-.361-.045-.735-.08-1.102-.324-3.355-1.891-5.985-4.665-7.88-1.711-1.168-3.627-1.73-5.7-1.757C.449 2.378-.04 1.885.003 1.186.035.648.47.166 1.01.182 1.802.206 2.607.23 3.382.38c3.943.758 6.9 2.918 8.884 6.4.806 1.417 1.286 2.951 1.473 4.573.046.395.073.792.109 1.188-.02.146-.012.291-.02.435z" mask="url(#mask-2)"/><path d="M1.463.212c2.97.236 5.181 1.633 6.557 4.295.538 1.04.769 2.162.788 3.33.01.619-.449 1.124-1.044 1.16-.633.04-1.152-.376-1.203-1.008-.057-.709-.114-1.413-.394-2.076C5.362 4.01 3.945 2.87 1.903 2.525c-.297-.05-.603-.047-.903-.083-.638-.077-1.045-.588-.995-1.238C.05.628.565.182 1.175.194c.097.003.192.012.288.018" mask="url(#mask-4)" transform="translate(0 5)"/><path d="M1.502 11c.816.005 1.502.693 1.498 1.503-.003.814-.693 1.5-1.504 1.497-.816-.003-1.5-.69-1.496-1.503.005-.817.691-1.502 1.502-1.497"/></symbol><symbol id="top-panel__star" viewBox="0 0 16 15"><path d="M11.625 13.166L8 11.286l-3.635 1.88.702-3.979L2.125 6.38l4.058-.586L8 2.184l1.817 3.61 4.058.586-2.942 2.807.692 3.98zm3.836-7.788l-4.827-.69-2.163-4.3C8.35.128 8.192 0 8 0c-.192 0-.35.13-.471.387L5.365 4.688l-4.827.69C.18 5.435 0 5.58 0 5.813c0 .132.08.283.24.454l3.5 3.346-.827 4.725a1.52 1.52 0 0 0-.019.19c0 .132.034.243.101.335.067.091.169.137.303.137a.827.827 0 0 0 .385-.114L8 12.656l4.317 2.23a.787.787 0 0 0 .385.114c.262 0 .394-.158.394-.473 0-.082-.003-.145-.01-.189l-.827-4.725 3.49-3.346c.167-.164.251-.316.251-.454 0-.233-.18-.378-.539-.435z"/></symbol></svg>